<?xml version="1.0" encoding="utf-8"?>
<!-- Uploaded to: SVG Repo, www.svgrepo.com, Generator: SVG Repo Mixer Tools -->
<svg width="800px" height="800px" viewBox="0 0 1024 1024" class="icon"  version="1.1" xmlns="http://www.w3.org/2000/svg"><path d="M511.87086 512.128176m-418.664448 0a418.664448 418.664448 0 1 0 837.328896 0 418.664448 418.664448 0 1 0-837.328896 0Z" fill="#178E3B" /><path d="M511.87086 1023.999036A511.999332 511.999332 0 0 1 312.623686 40.494737a511.999332 511.999332 0 0 1 398.507196 943.279726 508.748991 508.748991 0 0 1-199.260022 40.224573z m0-969.783493C259.372055 54.215543 53.958226 259.629372 53.958226 512.128176s205.413829 457.912634 457.912634 457.912634S969.783494 764.665523 969.783494 512.128176 764.408206 54.215543 511.87086 54.215543z" fill="#203529" /><path d="M511.87086 944.282181a432.154004 432.154004 0 0 1-305.570575-737.724579 432.154004 432.154004 0 0 1 611.153997 611.153996 429.314774 429.314774 0 0 1-305.583422 126.570583z m0-837.316048c-223.412751 0-405.174891 181.76214-405.174891 405.174891s181.76214 405.162044 405.174891 405.162043 405.174891-181.76214 405.174891-405.174891S735.283611 106.966133 511.87086 106.966133z" fill="#203529" /><path d="M588.838416 718.094435H438.796005a13.489557 13.489557 0 0 1-13.489557-13.489557V319.664322a13.489557 13.489557 0 0 1 13.489557-13.489557h150.042411a13.489557 13.489557 0 0 1 0 26.979114H452.221325v357.961443h136.617091a13.489557 13.489557 0 0 1 0 26.979113zM787.957118 718.094435H637.914707a13.489557 13.489557 0 0 1-13.489556-13.489557V319.664322a13.489557 13.489557 0 0 1 13.489556-13.489557h150.042411a13.489557 13.489557 0 0 1 13.489557 13.489557v384.940556a13.489557 13.489557 0 0 1-13.489557 13.489557z m-136.604243-26.979113h123.063298V333.153879H651.352875zM385.827013 718.094435H235.784602a13.489557 13.489557 0 0 1-13.489557-13.489557V319.664322a13.489557 13.489557 0 0 1 13.489557-13.489557h150.042411a13.489557 13.489557 0 0 1 0 26.979114H249.235617v357.961443h136.591396a13.489557 13.489557 0 0 1 0 26.979113z" fill="#203529" /><path d="M393.58672 525.617733H243.544309a13.489557 13.489557 0 1 1 0-26.979113h150.042411a13.489557 13.489557 0 0 1 0 26.979113z" fill="#203529" /></svg>